<?xml version='1.0' encoding='utf-8'?>
<svg xmlns="http://www.w3.org/2000/svg" version="1.1" viewBox="0 0 5e3 5e3"> <defs> <style>.cls-1 { fill: #85ab70; } .cls-1, .cls-2, .cls-3, .cls-4, .cls-5, .cls-6, .cls-7, .cls-8, .cls-9, .cls-10, .cls-11, .cls-12, .cls-13, .cls-14, .cls-15, .cls-16, .cls-17, .cls-18 { stroke-width: 0px; } .cls-2 { fill: #000; } .cls-3 { fill: #f2668a; } .cls-4 { fill: #f7638d; } .cls-5 { fill: #f9ffff; } .cls-6 { fill: #f89e2b; } .cls-7 { fill: #492100; } .cls-8 { fill: #f16789; } .cls-9 { fill: #000400; } .cls-10 { fill: #f2658e; } .cls-11 { fill: #ce416b; } .cls-12 { fill: #dd7202; } .cls-13 { fill: #fdefbe; } .cls-14 { fill: #e67706; } .cls-15 { fill: #f9951d; } .cls-16 { fill: #fff; } .cls-17 { fill: #fffff3; } .cls-18 { fill: #f2d58e; }</style> </defs> <rect class="cls-1" width="5e3" height="5e3"/> <path class="cls-2" d="M3672.32,3091.99c-115.08-73.37-271.95-74.16-390.47-1.97-2.41,1.48-4.87,3-7.33,4.52-17.21,10.67-33.44,20.8-48.05,19.52-11.7-.98-23.7-9.25-38.16-19.87l-1541.86-1134.82c50.41-136.57,22.38-295.85-72.39-402.12-101.21-113.6-274.46-154.81-411.81-98.01-127.47,52.67-216.68,190.56-212.1,327.82.15,4.72.39,9.44.79,14.11-136.27,31.57-249.18,153.34-267.38,292.41-3.44,26.31-4.03,52.08-1.87,77.06,8.41,98.85,59.65,185.5,146.79,244.66,78,52.96,173.74,76.77,266.84,70.37,59.41-4.03,117.68-20.36,169.61-49.28l5.61-3.15c3.39-1.92,6.74-3.84,10.03-5.61,10.47-5.61,20.46-9.98,29.65-9.74,12.59.34,26.11,9.59,41.21,20.65l1532.91,1125.33c-2.46,8.75-4.67,17.51-6.69,26.31-10.33,45.93-14.02,92.4-11.26,137.7,5.26,87.98,34.72,171.28,86.36,236.79,68.31,86.55,174.53,135.48,277.7,135.43,4.18,0,8.41-.1,12.59-.25,38.51-1.48,76.37-9.88,111.39-25.82,140.6-64.03,204.33-223.02,218.3-357.42,127.62-27.79,234.43-137.89,257.79-268.71,24.1-134.8-40.96-281.15-158.2-355.95ZM3782.14,3439.28c-11.31,63.39-45.54,121.07-92.95,163.37-40.18,36-89.85,60.88-142.96,68.9l-19.52,2.95-1.38,19.67c-.64,9.34-1.57,18.83-2.8,28.47-11.61,93.58-49.13,197.89-123.09,263.79-19.28,17.21-41.01,31.77-65.41,42.88-110.45,50.21-260.98,8.46-342.67-95.11-76.62-97.08-97.67-239.79-55.03-372.32l5.46-16.87-1561.23-1146.08c-16.87-12.39-39.98-29.36-68.95-30.15-.74-.05-1.48-.05-2.21-.05-24.64,0-45,11.51-63.05,21.69l-5.31,3c-117.44,65.36-272.15,57.83-384.96-18.79-54.78-37.18-143.65-122.3-123.73-274.66,5.8-44.65,23.06-87.24,48.49-124.47,40.33-59.11,101.26-104.65,169.96-123.58,10.13-2.8,20.46-5.02,30.93-6.59l24.54-3.74-3.93-24.49c-1.67-10.38-2.7-21.05-3.05-31.67-.1-2.85-.15-5.7-.15-8.61,0-58.28,19.47-116.21,52.57-164.89,32.11-47.11,76.96-85.57,129.34-107.26,118.66-49.08,268.56-13.23,356.34,85.27,85.18,95.6,108.49,247.02,56.6,368.29l-7.67,17.9,1572.84,1157.64c15.49,11.41,36.74,27.05,63.14,29.26,30.88,2.66,56.01-12.98,78.19-26.75,2.31-1.43,4.62-2.85,6.93-4.28,102.83-62.65,238.85-62.11,338.44,1.43,100.91,64.37,156.93,190.12,136.27,305.83Z"/> <path class="cls-18" d="m3782.1 3439.3c-11.31 63.39-45.54 121.07-92.95 163.37 21.64-32.16 36.98-68.6 43.87-107.11 20.65-115.71-35.36-241.46-136.27-305.83-99.58-63.54-235.61-64.08-338.44-1.43-2.31 1.43-4.62 2.85-6.93 4.28-22.18 13.77-47.31 29.41-78.19 26.75-26.41-2.21-47.65-17.85-63.14-29.26l-1572.8-1157.6 7.67-17.9c51.88-121.27 28.57-272.69-56.6-368.29-87.78-98.5-237.67-134.35-356.34-85.27-29.46 12.2-56.5 29.65-80.26 51 32.11-47.11 76.96-85.57 129.34-107.26 118.66-49.08 268.56-13.23 356.34 85.27 85.18 95.6 108.49 247.02 56.6 368.29l-7.67 17.9 1572.8 1157.6c15.49 11.41 36.74 27.05 63.14 29.26 30.88 2.66 56.01-12.98 78.19-26.75 2.31-1.43 4.62-2.85 6.93-4.28 102.83-62.65 238.85-62.11 338.44 1.43 100.91 64.37 156.93 190.12 136.27 305.83z"/> <path class="cls-13" d="M3733.06,3495.54c-6.88,38.51-22.23,74.95-43.87,107.11-40.18,36-89.85,60.88-142.96,68.9l-19.52,2.95-1.38,19.67c-.64,9.34-1.57,18.83-2.8,28.47-11.61,93.58-49.13,197.89-123.09,263.79-19.28,17.21-41.01,31.77-65.41,42.88-110.45,50.21-260.98,8.46-342.67-95.11-76.62-97.08-97.67-239.79-55.03-372.32l5.46-16.87-1561.23-1146.08c-16.87-12.39-39.98-29.36-68.95-30.15-.74-.05-1.48-.05-2.21-.05-24.64,0-45,11.51-63.05,21.69l-5.31,3c-117.44,65.36-272.15,57.83-384.96-18.79-54.78-37.18-143.65-122.3-123.73-274.66,5.8-44.65,23.06-87.24,48.49-124.47,40.33-59.11,101.26-104.65,169.96-123.58,10.13-2.8,20.46-5.02,30.93-6.59l24.54-3.74-3.93-24.49c-1.67-10.38-2.7-21.05-3.05-31.67-.1-2.85-.15-5.7-.15-8.61,0-58.28,19.47-116.21,52.57-164.89,23.75-21.34,50.8-38.8,80.26-51,118.67-49.08,268.56-13.23,356.34,85.27,85.18,95.6,108.49,247.02,56.6,368.29l-7.67,17.9,1572.84,1157.64c15.49,11.41,36.74,27.05,63.14,29.26,30.88,2.66,56.01-12.98,78.19-26.75,2.31-1.43,4.62-2.85,6.93-4.28,102.83-62.65,238.85-62.11,338.44,1.43,100.91,64.37,156.92,190.12,136.27,305.83Z"/> <path class="cls-4" d="M3328.41,1787.61c-67.92,38.33-156.66,44.45-203.11,48.19-68.51,5.54-128-5.36-208.76-20.18-142.2-26.03-151.33-50.31-233.68-50.2-28.71.02-123.54,1.33-215.2,56.79-49.7,30.16-46.2,44.53-153.16,135.31-60.56,51.43-90.86,77.17-124.43,94.91-34.02,17.95-113.4,58.57-216.88,47.88-16.8-1.75-32.45-4.62-46.83-8.2-1.37-10.07-2.65-20.09-3.94-30.01-5.21-40.13-10.59-81.69-18.73-122.46-11.23-56.26-27.93-112.47-44.1-166.83-30.07-101.21-58.73-197.57-55.57-294.96v-.15c.55-16.27,1.97-32.55,4.43-48.91,2.54-16.8,6.52-35.75,17.03-48.92,18.5-23.28,55.82-26.77,85.78-25.15,1.87.1,3.68.2,5.5.35,77.4,5.87,158.09,33.64,246.62,84.93l.62.38c11.36,6.58,25.5,14.73,42.66,16.15,22.46,1.81,41.42-8.24,57.14-16.55,140.76-74.67,299.39-113.59,458.95-112.58,13.44.09,30.18.21,45.85-8.2.71-.36,1.37-.71,2.03-1.12,13.43-7.84,21.46-19.72,27.94-29.27l.38-.57c44.59-65.74,98.22-124.74,159.52-175.35,24.34-20.1,53.29-40.89,83.36-42.42,23.01-1.17,48,9.35,68.73,28.6,3.14,2.88,6.18,5.95,9.1,9.26,22.37,25.2,36.51,57.93,48.43,89.6,26.66,70.64,48.08,150.65,65.54,244.58,2.71,14.58,5.27,29.15,7.82,43.76,8.38,47.98,17.12,97.6,31.05,145.84,11.32,39.23,26.22,77.86,40.59,115.23,5.23,13.53,10.36,26.96,15.3,40.28Z"/> <path class="cls-4" d="M3328.41,1787.61c-67.92,38.33-156.66,44.45-203.11,48.19-68.51,5.54-128-5.36-208.76-20.18-142.2-26.03-151.33-50.31-233.68-50.2-28.71.02-123.54,1.33-215.2,56.79-49.7,30.16-46.2,44.53-153.16,135.31-60.56,51.43-90.86,77.17-124.43,94.91-34.02,17.95-113.4,58.57-216.88,47.88-16.8-1.75-32.45-4.62-46.83-8.2-1.37-10.07-2.65-20.09-3.94-30.01-5.21-40.13-10.59-81.69-18.73-122.46-11.23-56.26-27.93-112.47-44.1-166.83-30.07-101.21-58.73-197.57-55.57-294.96v-.15c.55-16.27,1.97-32.55,4.43-48.91,2.54-16.8,6.52-35.75,17.03-48.92,18.5-23.28,55.82-26.77,85.78-25.15,1.87.1,3.68.2,5.5.35,77.4,5.87,158.09,33.64,246.62,84.93l.62.38c11.36,6.58,25.5,14.73,42.66,16.15,22.46,1.81,41.42-8.24,57.14-16.55,140.76-74.67,299.39-113.59,458.95-112.58,13.44.09,30.18.21,45.85-8.2.71-.36,1.37-.71,2.03-1.12,13.43-7.84,21.46-19.72,27.94-29.27l.38-.57c44.59-65.74,98.22-124.74,159.52-175.35,24.34-20.1,53.29-40.89,83.36-42.42,23.01-1.17,48,9.35,68.73,28.6,3.14,2.88,6.18,5.95,9.1,9.26,22.37,25.2,36.51,57.93,48.43,89.6,26.66,70.64,48.08,150.65,65.54,244.58,2.71,14.58,5.27,29.15,7.82,43.76,8.38,47.98,17.12,97.6,31.05,145.84,11.32,39.23,26.22,77.86,40.59,115.23,5.23,13.53,10.36,26.96,15.3,40.28Z"/> <path class="cls-18" d="m3221 2275.3c-29.55 26.27-61.62 49.21-94.62 69.29-16.86 10.32-33.97 19.83-51.15 28.75-60.55 31.34-121.9 54.66-175.26 73.19-71.73 24.92-138.27 44.17-201.32 57.94-29.16 6.35-57.56 11.56-85.36 15.61-51.39 7.61-100.79 11.38-149.16 11.47-126.39 0.29-245.5-26.51-344.58-77.58-88.3-45.47-147.06-132.62-174.63-259.06-6.32-28.81-11.01-58.47-15.08-87.99-0.71-5.06-1.42-10.12-2.08-15.18 14.38 3.59 30.04 6.45 46.83 8.2 103.49 10.68 182.86-29.93 216.88-47.88 33.56-17.73 63.87-43.47 124.43-94.91 106.97-90.78 103.46-105.15 153.16-135.31 91.66-55.46 186.48-56.77 215.2-56.79 82.35-0.12 91.48 24.17 233.68 50.2 80.75 14.82 140.25 25.73 208.76 20.18 46.45-3.74 135.18-9.86 203.11-48.19 3.18 8.54 6.27 17.04 9.21 25.52 18.02 51.01 31.64 101.3 32.69 153.76 2.25 107.49-54.1 222.98-150.7 308.8z"/> <path class="cls-18" d="m3221 2275.3c-29.55 26.27-61.62 49.21-94.62 69.29-16.86 10.32-33.97 19.83-51.15 28.75-60.55 31.34-121.9 54.66-175.26 73.19-71.73 24.92-138.27 44.17-201.32 57.94-29.16 6.35-57.56 11.56-85.36 15.61-51.39 7.61-100.79 11.38-149.16 11.47-126.39 0.29-245.5-26.51-344.58-77.58-88.3-45.47-147.06-132.62-174.63-259.06-6.32-28.81-11.01-58.47-15.08-87.99-0.71-5.06-1.42-10.12-2.08-15.18 14.38 3.59 30.04 6.45 46.83 8.2 103.49 10.68 182.86-29.93 216.88-47.88 33.56-17.73 63.87-43.47 124.43-94.91 106.97-90.78 103.46-105.15 153.16-135.31 91.66-55.46 186.48-56.77 215.2-56.79 82.35-0.12 91.48 24.17 233.68 50.2 80.75 14.82 140.25 25.73 208.76 20.18 46.45-3.74 135.18-9.86 203.11-48.19 3.18 8.54 6.27 17.04 9.21 25.52 18.02 51.01 31.64 101.3 32.69 153.76 2.25 107.49-54.1 222.98-150.7 308.8z"/> <path class="cls-13" d="M3199.07,2191.17c-29.55,26.27-61.62,49.21-94.62,69.29-16.86,10.32-33.97,19.83-51.15,28.75-60.55,31.34-121.9,54.66-175.26,73.19-71.73,24.92-138.27,44.17-201.32,57.94-29.16,6.35-57.56,11.56-85.36,15.61-51.39,7.61-100.79,11.38-149.16,11.47-126.39.29-245.5-26.51-344.58-77.58-88.3-45.47-147.06-132.62-174.63-259.06-6.32-28.81-11.01-58.47-15.08-87.99-.71-5.06-1.42-10.12-2.08-15.18,14.38,3.59,30.04,6.45,46.83,8.2,103.49,10.68,182.86-29.93,216.88-47.88,33.56-17.73,63.87-43.47,124.43-94.91,106.97-90.78,103.46-105.15,153.16-135.31,91.66-55.46,186.48-56.77,215.2-56.79,82.35-.12,91.48,24.17,233.68,50.2,80.75,14.82,140.25,25.73,208.76,20.18,46.45-3.74,135.18-9.86,203.11-48.19,3.18,8.54,6.27,17.04,9.21,25.52,18.02,51.01,31.64,101.3,32.69,153.76,2.25,107.49-54.1,222.98-150.7,308.8Z"/> <path class="cls-15" d="M3355.44,1804.14c-5.79,3.23-11.76,6.21-17.82,8.98-2.94-8.48-6.02-16.97-9.21-25.52-67.92,38.33-156.66,44.45-203.11,48.19-68.51,5.54-128-5.36-208.76-20.18-142.2-26.03-151.33-50.31-233.68-50.2-28.71.02-123.54,1.33-215.2,56.79-49.7,30.16-46.2,44.53-153.16,135.31-60.56,51.43-90.86,77.17-124.43,94.91-34.02,17.95-113.4,58.57-216.88,47.88-16.8-1.75-32.45-4.62-46.83-8.2.66,5.06,1.37,10.12,2.08,15.18h-.1c-1.37-10.08-2.7-20.1-4.04-30.02-5.36-40.13-10.84-81.7-19.17-122.49-11.48-56.27-28.57-112.51-45.08-166.89-32.3-106.41-62.92-207.5-56.03-310.06v-.15c.76-11.24,1.97-22.55,3.67-33.88,2.54-16.8,6.57-35.74,17.28-48.9,18.79-23.26,56.8-26.72,87.3-25.06,1.92.1,3.73.2,5.6.35,78.82,5.95,160.99,33.79,251.14,85.17l.67.38c11.56,6.59,25.94,14.75,43.45,16.19,22.85,1.83,42.16-8.2,58.12-16.5,143.27-74.53,304.69-113.31,467.15-112.13,13.69.1,30.72.24,46.69-8.16.71-.36,1.37-.71,2.03-1.12,13.67-7.83,21.85-19.7,28.43-29.24l.38-.57c45.33-65.7,99.89-124.65,162.22-175.2,24.78-20.08,54.22-40.84,84.84-42.34,15.6-.73,32.06,3.66,47.59,12.38,11.33,6.33,22.09,14.99,31.66,25.55,22.81,25.22,37.24,57.97,49.41,89.65,27.2,70.67,49.11,150.71,66.97,244.66,2.76,14.58,5.41,29.15,8.02,43.77,8.58,47.99,17.51,97.63,31.74,145.87,11.56,39.24,26.76,77.89,41.42,115.27,5.37,13.54,10.6,26.97,15.64,40.3Z"/> <path class="cls-2" d="M3594.93,2743.37c-5.38-8.86-13.12-15.98-23.03-21.29,19.1-41.71,18.88-87.58-2.08-123.34-24.97-42.62-81.34-75.87-125.38-57.38-27.31,11.47-39.17,38.51-43.67,48.7-9.72,22.18-8.98,40.34-8.47,53.62.46,11.45.54,16.33-3.13,22.24-4.38,7.15-11.6,11.39-19.52,14.8.14-7.08,0-13.79-.29-20.06-6.22-117.01-88.94-192.76-143.74-242.91-17.27-15.81-35.44-30.39-54.51-43.73,28.13-18.32,55.44-38.71,81.15-61.55,108.82-96.74,169.74-223.06,167.23-346.62-1.5-73.17-24.71-142-49.91-208.52-3.54-9.25-7.08-18.46-10.62-27.66-13.99-36.37-28.49-74.04-39.23-111.21-13.18-45.68-21.65-94.01-29.85-140.7-2.6-14.77-5.2-29.54-7.94-44.26-17.95-96.76-40.16-179.52-67.85-252.93-13.56-36.1-29.98-73.78-57.7-104.93-32.03-36.06-75.75-56.31-117.03-54.26-44.44,2.22-81.66,28.32-112.24,53.56-64.86,53.61-121.68,116.08-168.9,185.72l-.37.52c-4.07,6.03-8.25,12.21-12.01,14.42l-.35.18c-4.72,2.55-13.73,2.46-22.69,2.41-167.44-1.05-334.15,39.85-482.47,118.54-10.6,5.63-21.56,11.54-29.59,10.76-6.18-.48-13.92-4.94-22.08-9.72l-.67-.38c-95.07-54.99-182.55-84.9-267.54-91.38-61.12-4.59-107.28,10.29-133.44,43.2-17.86,22.43-23.91,50.42-27.16,72.25-18.75,125.16,17.53,247.25,52.59,365.33,15.87,53.31,32.24,108.42,43.05,162.49,7.78,39.13,13.06,79.8,18.17,119.13.28,2.08.56,4.17.79,6.3,5.59,43.1,11.51,87.55,21.02,131.06,30.41,139.45,99.64,240.52,200.16,292.31,92.28,47.55,200.44,75.48,315.4,81.71,17.14.93,34.4,1.37,51.79,1.33,37.29-.1,75.13-2.23,113.87-6.53-25.69,51.5-29.45,101.73-11.9,138.58,21,44.13,71.33,71.54,111.42,82.43,66.93,18.21,120.5-6.17,143.43-16.55,36.46-16.59,68.97-43,93.79-75.83l68.43,66.9c-38.8,14.4-73.57,36.25-102.09,64.4-26.02,25.68-80.23,79.18-62.94,134.44,18.52,59.07,102.55,70.72,142.42,72.88,9.87.54,17.06.53,19.87.44,66.01-1.15,113.36-28.87,178.97-67.23,19.02-11.13,35.66-20.87,50.65-30.35,18.35,11.34,37.98,17.97,56.89,18.99,14.93.81,29.35-1.86,42.37-8.39,11.54-5.78,20.5-13.91,27.44-22.79,12.03,10.7,27.13,20.09,45.72,25.08,62.09,16.61,114.32-29.36,142.36-54.04,4.5-3.94,109.4-97.49,71.43-160.18ZM2462.72,2531.93c-126.39.29-245.5-26.51-344.58-77.58-88.3-45.47-147.06-132.62-174.63-259.06-2.21-10.07-4.18-20.17-6.04-30.37,0-.05-.04-.15-.04-.2-3.45-19-6.35-38.27-9-57.42-.71-5.06-1.42-10.12-2.08-15.18-1.37-10.07-2.65-20.09-3.94-30.01-2.22-17.21-4.52-34.67-7.02-52.24-3.31-23.38-7.06-46.92-11.71-70.22-11.23-56.26-27.93-112.47-44.1-166.83-30.07-101.21-58.73-197.57-55.57-294.96v-.15c.55-16.27,1.97-32.55,4.43-48.91,2.54-16.8,6.52-35.75,17.03-48.92,18.5-23.28,55.82-26.77,85.78-25.15,1.87.1,3.68.2,5.5.35,77.4,5.87,158.09,33.64,246.62,84.93l.62.38c11.36,6.58,25.5,14.73,42.66,16.15,22.46,1.81,41.42-8.24,57.14-16.55,140.76-74.67,299.39-113.59,458.95-112.58,13.44.09,30.18.21,45.85-8.2.71-.36,1.37-.71,2.03-1.12,13.43-7.84,21.46-19.72,27.93-29.27l.38-.57c44.59-65.74,98.22-124.74,159.52-175.35,24.34-20.1,53.29-40.89,83.36-42.42,23.01-1.17,48,9.35,68.73,28.6,3.14,2.88,6.18,5.95,9.1,9.26,22.37,25.2,36.51,57.93,48.43,89.6,26.66,70.64,48.08,150.65,65.54,244.58,2.71,14.58,5.27,29.15,7.82,43.76,8.38,47.98,17.12,97.6,31.05,145.84,7.42,25.72,16.38,51.17,25.72,76.15,4.9,13.17,9.91,26.2,14.87,39.07,5.23,13.53,10.36,26.96,15.3,40.28.04.1.09.25.13.35,3.14,8.44,6.18,16.78,9.08,25.17,2.9,8.19,5.66,16.36,8.32,24.53v.05c13.74,42.66,23.5,85.15,24.37,129.17,2.25,107.49-54.1,222.98-150.7,308.8-29.55,26.27-61.62,49.21-94.62,69.29-16.86,10.32-33.97,19.83-51.15,28.75-60.55,31.34-121.9,54.66-175.26,73.19-26.4,9.16-52.12,17.56-77.16,25.27-.5.12-.95.24-1.4.42-7.56,2.3-15.07,4.55-22.52,6.66-8.86,2.57-17.61,5-26.31,7.39-2.9.78-5.8,1.56-8.65,2.34-2.05.53-4.1,1.11-6.15,1.64-20.08,5.26-39.75,10.01-59.13,14.23-29.16,6.35-57.56,11.56-85.36,15.61-51.39,7.61-100.79,11.38-149.16,11.47ZM3211.07,2883.41c-12.12,9.24-25.5,17.97-41.24,27.51-11,6.69-23.06,13.77-36.64,21.7-63.48,37.14-101.82,59.54-154.97,60.5-14.05.27-28.87-.78-42.98-2.97-34.97-5.39-65.86-18-71.49-35.89-.67-2.1-1-4.34-1.07-6.61-.02-1.48.06-2.95.24-4.47.19-1.62.52-3.27.96-4.97,6.39-25.26,37.3-55.75,50.41-68.73,31.84-31.37,73.32-53.4,119.97-63.63l44.16-9.67.3-.08-174.78-170.96-15.65,27.08-.21.33c-12.07,20.97-39.71,59.41-88.84,81.72-18.99,8.67-57.92,26.31-105.67,15.01-1.51-.33-2.97-.7-4.47-1.13-30.43-8.25-66.95-28.8-79.9-56.09-3.72-7.79-5.79-16.67-6.35-26.35-.3-6.27.06-12.9,1.07-19.79,3.54-24.43,15.53-52.15,35.36-79.89,85.12-14,175.51-37.96,275.4-72.64,56.57-19.64,121.89-44.56,186.63-78.58,7.81-4.11,15.57-8.37,23.34-12.72,24.09,15.34,46.69,32.67,67.76,51.94,51.75,47.38,122.65,112.29,127.84,209.25.05.94.09,1.88.09,2.86.05.84.05,1.73.1,2.62.19,6.46.06,13.4-.48,20.76-.39,5.35-.99,10.93-1.84,16.74-.76,4.98-1.68,10.15-2.8,15.41-1.17,5.21-2.54,10.5-4.16,15.93-9.54,32.38-27.63,69.13-60.06,107.75-12.58,14.98-25.34,26.9-40.04,38.07ZM3490.98,2866.62c-24.05,21.2-60.51,53.26-97.11,43.44-20.58-5.5-34.67-21.87-42.89-34.63l-28.66-44.5c21.26-34.16,33.6-66.64,40.36-95.87,4.89-1.16,9.85-2.72,14.83-4.56,14.48-5.47,38.76-14.55,53.67-38.9,11.57-18.92,10.82-36.1,10.29-49.92-.48-11.21-.83-20.09,4.34-31.83,2.53-5.77,8.43-19.24,17.65-23.13,16.53-6.89,49.39,12.03,63.95,36.86,16.05,27.42,11.29,66.02-12.13,98.38l-24.06,33.27,40.68,5.5c12.91,1.73,19.26,5.33,20.98,8.13,7.55,12.43-20.1,60.96-61.89,97.75Z"/> <path class="cls-14" d="M3490.98,2866.64c-23.79,20.97-59.68,52.56-95.89,43.71-.39-.07-.83-.14-1.22-.26-20.58-5.5-34.67-21.87-42.89-34.63l-28.66-44.5c19.96-32.06,32.06-62.58,39.03-90.37.45-1.85.89-3.69,1.33-5.49,4.89-1.16,9.85-2.72,14.83-4.56,14.48-5.47,38.76-14.54,53.67-38.9,11.57-18.93,10.82-36.1,10.29-49.92-.48-11.21-.83-20.09,4.34-31.83,2.53-5.77,8.43-19.24,17.65-23.13.2-.09.4-.18.6-.21,5.23-1.98,12.05-1.46,19.35.95h.05c15.87,5.25,34.12,19.34,43.94,36.12,16.05,27.42,11.29,66.02-12.13,98.38l-24.06,33.27,40.68,5.5c12.91,1.73,19.26,5.33,20.98,8.13,7.55,12.43-20.1,60.96-61.89,97.75Z"/> <path class="cls-6" d="M3471.14,2865.57c-19.45,17.12-46.91,41.29-76.06,44.78-.39-.07-.83-.14-1.22-.26-20.58-5.5-34.67-21.87-42.89-34.63l-28.66-44.5c19.96-32.06,32.06-62.58,39.03-90.37.45-1.85.89-3.69,1.33-5.49,4.89-1.16,9.85-2.72,14.83-4.56,14.48-5.47,38.76-14.54,53.67-38.9,11.57-18.93,10.82-36.1,10.29-49.92-.48-11.21-.83-20.09,4.34-31.83,2.53-5.77,8.43-19.24,17.65-23.13.2-.09.4-.18.6-.21,7.06,2.4,14.57,6.55,21.57,11.86,8.66,6.58,16.58,14.93,21.94,24.14,16.05,27.42,11.29,66.02-12.13,98.38l-24.06,33.27,40.68,5.5c12.91,1.73,19.26,5.33,20.98,8.13,7.55,12.43-20.1,60.96-61.89,97.75Z"/> <path class="cls-12" d="M3078.75,2796.11l-.3.08-174.5-170.7-15.54,26.84-.33.57c-12.07,20.97-39.71,59.41-88.84,81.72-19.14,8.71-58.42,26.53-106.64,14.76-1.17-.26-2.33-.57-3.5-.88-30.43-8.25-66.95-28.8-79.9-56.09-3.76-7.89-5.88-16.87-6.33-26.69.56,9.68,2.64,18.56,6.35,26.35,12.95,27.3,49.46,47.84,79.9,56.09,1.5.43,2.96.8,4.47,1.13,47.75,11.31,86.68-6.33,105.67-15.01,49.13-22.31,76.77-60.75,88.84-81.72l.21-.33,15.65-27.08,174.78,170.96Z"/> <path class="cls-12" d="M3319.99,2689.51c-.39,5.35-.99,10.93-1.84,16.74-.76,4.98-1.68,10.15-2.8,15.41-1.17,5.3-2.55,10.7-4.18,16.27-9.54,32.38-27.63,69.13-60.06,107.75-12.58,14.98-25.34,26.9-40.04,38.07-12.12,9.24-25.5,17.97-41.24,27.51-11,6.69-23.06,13.77-36.64,21.7-63.48,37.14-101.82,59.54-154.97,60.5-14.69.29-30.14-.85-44.79-3.27-34.27-5.55-64.13-18-69.68-35.59-.72-2.21-1.03-4.54-1.05-6.95.07,2.27.4,4.5,1.07,6.61,5.63,17.89,36.52,30.49,71.49,35.89,51.46-1.79,89.56-24.01,151.71-60.38,13.58-7.93,25.64-15.01,36.64-21.7,15.74-9.54,29.11-18.27,41.24-27.51,14.69-11.17,27.45-23.09,40.03-38.07,32.43-38.63,50.53-75.37,60.06-107.75,5.19-17.55,7.79-33.86,8.83-48.43.71-9.37.68-18.04.27-25.89-5.18-96.96-76.08-161.87-127.84-209.25-14.17-12.98-29.08-25.07-44.63-36.2,7.7-4.01,15.42-8.23,23.09-12.54,24.09,15.34,46.69,32.67,67.76,51.94,51.75,47.38,122.65,112.29,127.84,209.25.05.84.11,1.68.11,2.52.05.84.05,1.73.1,2.62.19,6.46.06,13.4-.48,20.76Z"/> <path class="cls-15" d="M3273.77,2686.32c-1.04,14.57-3.64,30.88-8.83,48.43-9.54,32.38-27.63,69.13-60.06,107.75-12.58,14.98-25.34,26.9-40.03,38.07-12.12,9.24-25.5,17.97-41.24,27.51-11,6.69-23.06,13.77-36.64,21.7-62.15,36.38-100.25,58.59-151.71,60.38-34.97-5.39-65.86-18-71.49-35.89-.67-2.1-1-4.34-1.07-6.61-.02-1.48.06-2.95.24-4.47.19-1.62.52-3.27.96-4.97,6.64-25.2,37.38-55.45,50.4-68.38,31.84-31.37,73.32-53.4,119.97-63.63l44.46-9.75-.28-.26.3-.08-174.78-170.96-15.65,27.08-.21.33c-12.07,20.97-39.71,59.41-88.84,81.72-18.99,8.67-57.92,26.31-105.67,15.01-1.51-.33-2.97-.7-4.47-1.13-30.43-8.25-66.95-28.8-79.9-56.09-3.72-7.79-5.79-16.67-6.35-26.35-.3-6.27.06-12.9,1.07-19.79,3.64-24.38,15.62-51.95,35.34-79.54,85.12-14,175.51-37.96,275.4-72.64,56.67-19.68,122.1-44.65,186.89-78.76,15.55,11.14,30.46,23.22,44.63,36.2,51.75,47.38,122.65,112.29,127.84,209.25.41,7.85.43,16.52-.27,25.89Z"/> <path class="cls-8" d="m1963.4 1749.5c16.51-12.06 34.84-24.02 55.25-35.22 91.53-50.49 177.58-61.49 226.62-63.95-22.5-43.77-43.76-79.45-60.54-106.02-33.25-52.53-52.62-74.95-71.19-84.92-35.34 20.59-54.57 43.68-65.61 60.96-4.09 6.48-12.01 25.25-27.67 62.57-22 52.39-33.14 79.02-39.67 99.45-5.17 16.32-11.67 39.01-17.18 67.13z"/> <path class="cls-11" d="m1888.2 1816.6c18.41-19.88 43.2-43.71 75.14-67.04 5.51-28.12 12.01-50.81 17.18-67.13 6.53-20.43 17.67-47.06 39.67-99.45 15.66-37.32 23.58-56.1 27.67-62.57 11.03-17.28 30.26-40.37 65.61-60.96-5.5-2.96-10.92-4.78-16.67-5.98-4.23-0.92-22.81-4.44-43.27 3.17-30.71 11.39-45.63 40.37-58.93 68.61-40.83 86.34-65.03 161.26-69.13 174.09-17.44 54.66-30.87 97.02-37.29 117.26z"/> <path class="cls-8" d="m3128.7 1479.6c-15.11-13.77-32.04-27.64-51.12-40.99-85.54-60.09-169.89-80.33-218.38-88.08 27.1-41.08 52.09-74.25 71.65-98.85 38.74-48.63 60.42-68.83 79.95-76.73 32.91 24.29 49.53 49.32 58.63 67.7 3.37 6.88 9.21 26.4 20.75 65.2 16.21 54.46 24.41 82.14 28.69 103.16 3.38 16.78 7.38 40.05 9.83 68.6z"/> <path class="cls-11" d="m3196.1 1554.4c-16.16-21.76-38.22-48.12-67.46-74.77-2.44-28.55-6.45-51.82-9.83-68.6-4.28-21.02-12.48-48.69-28.69-103.16-11.54-38.79-17.38-58.32-20.75-65.2-9.1-18.37-25.72-43.4-58.63-67.7 5.79-2.35 11.37-3.57 17.22-4.14 4.31-0.46 23.15-1.95 42.67 7.83 29.3 14.64 41 45.07 51.17 74.58 31.26 90.25 47.22 167.35 49.9 180.55 11.43 56.22 20.2 99.79 24.39 120.6z"/> <path class="cls-2" d="M2887.16,2059.81c.15-13.59-10.88-24.67-24.31-24.81-13.59-.15-24.71,10.73-24.86,24.31-.1,8.22-1.65,20.45-8.78,32.08-5.46,9.01-12.85,15.36-20.38,19.83-11.45,6.87-23.17,9.43-29.05,10.69-6.53,1.42-12.81,1.97-18.77,1.94-11.38.02-21.65-2.21-30.07-4.98-13.21-4.36-22.01-10.16-23.76-11.38-4.75-3.26-8.94-6.84-12.62-10.68,12.47-4.69,24.4-11.33,35.7-19.78,25.15-18.73,46.78-46.22,62.61-80.28,22.02-47.42,19.97-92.29-5.46-119.97-12.04-13.16-27.27-20.29-39.13-24.97-90.16-35.77-199.96-7.1-261.08,68.19-3.27,4.06-10.13,12.5-12.22,23.81-.06.19-.08.54-.14.83-1.65,9.61.35,18.09,2.48,25.15,20.92,68.31,87.15,131.15,161.89,135.3,5.19,8.7,11.52,17.27,19.36,25.33-2.29,2.34-4.64,4.67-7.02,6.91-13.34,12.67-20.67,19.66-32.9,25.55-1.67.8-3.28,1.55-4.95,2.19-16.13,6.81-32.8,9.06-48.92,6.61-2.49-.38-4.97-.91-7.41-1.49-30.47-7.51-47.41-29.41-53.27-38.45-7.36-11.43-22.6-14.67-33.98-7.31-11.38,7.36-14.67,22.6-7.31,33.98,4,6.18,11.38,16.28,22.45,26.53,10.08,9.46,23.3,19.04,39.85,26.14,6.36,2.66,13.17,5,20.51,6.82,8.21,2.02,16.52,3.26,24.87,3.71.88.05,1.72.09,2.61.09,4.6,16.06,11.38,32.68,21.17,49.12,14.58,24.48,41.71,70.08,95.89,80.01,5.02.91,10.07,1.48,15.17,1.76,42.33,2.29,84.37-17.44,104.03-50.21,13.81-23.09,12.99-46.03,12.52-58.32-.95-26.1-3.02-53.4-6.21-81.75,24.46-9.66,43.06-24.85,55.55-45.35,10.22-16.73,15.72-36.53,15.95-57.15ZM2619.76,2052.11c-44.18-12.59-82.33-53.86-95.42-96.73-.29-.95-.5-1.7-.62-2.25.37-.52.9-1.18,1.64-2.13,47.18-58.12,135.2-81.12,204.77-53.51,10.41,4.11,16.9,7.96,21.09,12.52,13.53,14.77,7.38,43.79-2.94,66.03-9.08,19.5-34.46,65.11-77.95,76.99-1.3.32-2.65.64-3.99.97-15.75,3.43-31.51,2.48-46.59-1.89ZM2767.13,2277.09c-11.21,18.8-41.82,30.19-68.16,25.36-32.19-5.88-50.37-36.52-62.42-56.77-6.18-10.43-10.83-20.98-14.21-31.31,5.97-1.99,11.86-4.38,17.68-7.22,19.17-9.25,30.75-20.3,45.44-34.23,4.67-4.47,9.26-9.1,13.6-13.84,13.41,6.14,32.31,12.59,54.71,13.8,4.42.24,8.95.29,13.59.05,2.72,25.26,4.55,49.59,5.36,72.88.31,8.73.75,20.68-5.59,31.27Z"/> <path class="cls-10" d="M2772.57,2259.46c-.56,5.78-2.03,11.96-5.44,17.63-11.21,18.8-41.82,30.19-68.16,25.36-30.28-5.53-48.2-33-60.21-53.1-.77-1.27-1.49-2.49-2.21-3.67-6.18-10.43-10.83-20.98-14.21-31.31,5.97-1.99,11.86-4.38,17.68-7.22,19.17-9.25,30.75-20.3,45.44-34.23,4.68-4.47,9.26-9.1,13.6-13.84,8.27,3.8,18.64,7.71,30.66,10.38,7.39,1.73,15.5,2.96,24.05,3.42,4.42.24,8.95.29,13.59.05.82,7.63,1.59,15.21,2.22,22.68,1.53,17.22,2.59,33.97,3.14,50.21.13,4,.31,8.73-.15,13.63Z"/> <path class="cls-7" d="M2748.29,1976.04c-9.08,19.5-34.46,65.11-77.95,76.99-1.3.32-2.65.64-3.99.97-15.75,3.43-31.51,2.48-46.59-1.89-44.18-12.59-82.33-53.86-95.42-96.73-.29-.95-.5-1.7-.62-2.25.37-.52.9-1.18,1.64-2.13,47.18-58.12,135.2-81.12,204.77-53.51,10.41,4.11,16.9,7.96,21.09,12.52,13.53,14.77,7.38,43.79-2.94,66.03Z"/> <path class="cls-11" d="m2772.6 2259.5c-0.56 5.78-2.03 11.96-5.44 17.63-11.21 18.8-41.82 30.19-68.16 25.36-30.28-5.53-48.2-33-60.21-53.1 11.92 6.31 29.12 15.22 52.97 18.58 35.82 5.09 64.23-5.63 80.83-8.47z"/> <ellipse class="cls-5" transform="translate(-338.26 586.14) rotate(-11.84)" cx="2657.9" cy="1924.5" rx="57.4" ry="16.03"/> <path class="cls-9" d="m2925.5 1723.7c-5.76-6.86-14.62-19.41-17.89-36.87-9.31-49.72 36.49-86.92 38.49-88.5 27.73-21.82 58.29-22.01 66.36-21.81 5.25 0.13 51.5 2.01 77.48 37.89 16.38 22.63 24.09 57.93 12.39 66.95-3.21 2.47-7.45 2.65-11.16 2.16-4.52-4.27-11.38-9.86-20.76-14.38-29.39-14.17-58.75-6-70.55-2.72-43.91 12.21-67.51 46.47-74.36 57.28z"/> <ellipse class="cls-17" transform="translate(-301.95 848.91) rotate(-15.82)" cx="2904.9" cy="1511.4" rx="81.36" ry="46.94"/> <ellipse class="cls-3" transform="translate(877.44 4527.4) rotate(-79.8)" cx="3146" cy="1739" rx="27.28" ry="64.53"/> <path class="cls-9" d="m2084.6 1983.6c-5.76-6.86-14.62-19.41-17.89-36.87-9.31-49.72 36.49-86.92 38.49-88.5 27.73-21.82 58.29-22.01 66.36-21.81 5.25 0.13 51.5 2.01 77.48 37.89 16.38 22.63 24.09 57.93 12.39 66.95-3.21 2.47-7.45 2.65-11.16 2.16-4.52-4.27-11.38-9.86-20.76-14.38-29.39-14.17-58.75-6-70.55-2.72-43.91 12.21-67.51 46.47-74.36 57.28z"/> <ellipse class="cls-17" transform="translate(-397.33 650.91) rotate(-15.82)" cx="2144.5" cy="1755.8" rx="81.36" ry="46.94"/> <ellipse class="cls-3" transform="translate(-786.6 1486.9) rotate(-33.44)" cx="2081.5" cy="2052.6" rx="64.53" ry="27.28"/> <path class="cls-16" d="M3479.81,2667.61c-13.35,39.96-51.93,85.78-93.88,81.1-7.59-.85-16.56-3.46-24.58-8.13.45-1.85.89-3.69,1.33-5.49,4.89-1.16,9.85-2.72,14.83-4.56,14.48-5.47,38.76-14.54,53.67-38.9,11.57-18.93,10.82-36.1,10.29-49.92-.48-11.21-.83-20.09,4.34-31.83,2.53-5.77,8.43-19.24,17.65-23.13.2-.09.4-.18.6-.21,5.23-1.98,12.05-1.46,19.35.95h.05c.9,3.45,1.58,7.13,2.17,10.91,3.27,21.5,1.41,47.55-5.82,69.22Z"/> </svg>