<?xml version='1.0' encoding='utf-8'?>
<svg xmlns="http://www.w3.org/2000/svg" viewBox="0 0 1500 2000"><defs><style>.cls-1{fill:#b3dee4;}.cls-2{fill:#f4eb82;}.cls-3{fill:#f5a6c4;}.cls-4{fill:#ea7289;}.cls-10,.cls-15,.cls-16,.cls-5{fill:none;stroke:#333;stroke-miterlimit:10;}.cls-15,.cls-5{stroke-width:10px;}.cls-6{fill:#c59c6d;}.cls-7{fill:#736458;}.cls-8{fill:#333;}.cls-9{fill:#a77d52;}.cls-10{stroke-width:15px;}.cls-11{fill:#e9e0d6;}.cls-12{fill:#b0a9a2;}.cls-13{fill:#e68787;}.cls-14{fill:#edaba4;}.cls-15{stroke-linecap:round;}.cls-16{stroke-width:12px;}</style></defs><title>Sheep</title><g id="BG"><rect class="cls-1" width="1500" height="2000"/></g><g id="Horn"><polygon class="cls-1" points="423 439 418 460 448.06 477.88 484 444 486 423 423 439"/><polygon class="cls-2" points="434.29 394.64 425 436 455 435 487 417 482.8 379.21 434.29 394.64"/><polygon class="cls-3" points="446.99 353.05 435 393 461 390 487 374 487 341 446.99 353.05"/><polygon class="cls-4" points="474 300 449 333 451 355 488 340 479 301 474 300"/><path class="cls-5" d="M416.45,459.77S450.5,299.5,473.5,301.5s6.29,170.42,6.29,170.42-17.74,10.86-32.64,8.89-30.78-20.18-30.78-20.18"/><path class="cls-5" d="M421.69,438.64A154.66,154.66,0,0,0,455,433c13.74-4,28.84-12.06,28.84-12.06"/><path class="cls-5" d="M429,394.64A135.52,135.52,0,0,0,460.09,389C472.9,385,487,376.94,487,376.94"/><path class="cls-5" d="M442,353.64A89.92,89.92,0,0,0,466.12,348,104,104,0,0,0,487,337"/></g><g id="Body"><path class="cls-6" d="M644.43,1526.67s-14.21,55.88-16.52,97.42-3.69,52.16-3.69,52.16l71.54-7.39v-129.7Z"/><polygon class="cls-6" points="758.31 1566.51 758.31 1692.17 817.16 1690.44 817.16 1620.51 758.31 1566.51"/><path class="cls-6" d="M1084.41,1508s4.22,53.41,13.85,77.55,26.65,53,26.65,53l62.32-3.11s-19.16-36.26-27-90.36-8.44-79.54-8.44-79.54Z"/><path class="cls-6" d="M1194.5,1390s28.38,79.71,35.31,127.74,17,112.89,17,112.89l52.27-19.76s-5.88-90-20.42-140.55-41.53-98.77-41.53-98.77Z"/><path class="cls-7" d="M538.74,620.32s8.9,107.4-22.36,200.47S458,952.09,458,952.09l15.06,23.68s-39.06,14-39.06,52.08,18.82,72.94,18.82,72.94-56,43.77-40,73.89S452.38,1201,452.38,1201s-48.47,71.53,3.3,121.41S554,1360.56,554,1360.56s-3.77,94.59,54.12,149.65,132.23,16.46,132.23,16.46,42.36,111.54,107.77,92.24,47.06-52.4,47.06-52.4,33.88,3.46,75.76-26.19,39.53-48.94,39.53-48.94,53.65,35.77,114.35-.47,26.83-90.35,26.83-90.35,65.41,1.88,111.53-42.35,15.53-136,15.53-136,26.82-6.59,26.82-25.42-8.21-37.11-8.21-37.11,57.62-40.06,29.39-95.12S1203,954.91,1203,954.91s11.29-80.47-37.65-117.65-103.06-29.17-103.06-29.17-1.88-56-31.52-75.77-73.89,7.06-73.89,7.06,10.36-48-15.53-57.41-62.11,12.24-62.11,12.24-4.71-33-38.12-61.18-80.94-18.82-80.94-18.82-3.3-43.77-25.89-58.36-90.64-7.71-90.64-7.71l-28.3,28.18S660.11,639,673.09,740.79s.47,121.42.47,121.42-18.93,12-38.59,0-51.27-64-64.93-118.12S538.74,620.32,538.74,620.32Z"/><path class="cls-8" d="M1067.23,1158.86l-2.36-1.45a5.53,5.53,0,0,1-2.14-7c4.17-9.29,11.54-32-2.31-55.84-15-25.8-55-20.76-55.4-20.71l-11.21,1.5,3.76-10.67c.6-1.74,14.46-43.9-25-88.26-32.67-36.71-70.63-36.18-83.92-34.65a5.51,5.51,0,0,1-6-4.26l-.62-2.7a5.53,5.53,0,0,1,4.76-6.75c15.82-1.84,59.18-2.34,96.11,39.15,33.82,38,32.94,75.21,30.07,92.34h.55c15.57,0,44.64,3.53,58.89,28,17.11,29.41,8,57.36,2.76,68.89A5.52,5.52,0,0,1,1067.23,1158.86Z"/><path class="cls-9" d="M681.55,1535.32s1.54,60.85-.9,85c-2.48,24.58-20,26.48-38.31,22.33-6.68-1.52-12.4-6.24-12.4-6.24s-1.22,27.18,6.22,33.58,52.8,8.66,55.39,0,3.06-136.91,3.06-136.91l-7.27-1.39Z"/><path class="cls-9" d="M799.39,1608.16v42.47s.06,16.93-15.47,17.08c-25.27.23-28-5.66-28-5.66s-2.46,27.35,4.69,29.89,56.55.23,56.55.23l.92-70.71Z"/><path class="cls-9" d="M1217.56,1379.56s28.45,78.36,37.66,134.67,16.59,68.47,25.82,68.32c13.62-.24,14.16-14.09,14.16-14.09l3.84,39-48.46,17.08-28.16-127.86-27.31-107Z"/><path class="cls-9" d="M1121.56,1486.56s2.14,50.75,7.68,73.37S1143,1599.65,1150,1601c11.78,2.3,17.54-9.69,17.54-9.69l15.23,45.23-65.55-4.09-22.61-59.61-10.16-68.39Z"/><path class="cls-8" d="M690.69,1678.09h-60a8.31,8.31,0,0,1-8.31-8.31v-36.46c0-47.12,13.13-109.61,13.69-112.25l10,6.66c-.13.63-12.56,59.64-12.56,105.59v19.85A13.84,13.84,0,0,0,647.3,1667h26.77a13.84,13.84,0,0,0,13.85-13.84v-116.4H699v133A8.31,8.31,0,0,1,690.69,1678.09Z"/><path class="cls-8" d="M817.16,1699.32H758.08a8.3,8.3,0,0,1-8.3-8.33l.32-131,11.08,0-.29,114.29a13.86,13.86,0,0,0,13.85,13.89h25.8a13.85,13.85,0,0,0,13.85-13.85v-52.94h11.08V1691A8.31,8.31,0,0,1,817.16,1699.32Z"/><path class="cls-8" d="M1184.81,1640.93h-66.47a5.52,5.52,0,0,1-4.85-2.86h0c-.47-.85-11.57-21.26-21.33-64.46-7.42-32.87-11.15-68.44-11.18-68.79l11-1.14c0,.35,3.69,35.28,11,67.49,5.3,23.47,11,40,15.06,50a13.79,13.79,0,0,0,12.84,8.66h25.47a13.85,13.85,0,0,0,13.09-18.38,390.35,390.35,0,0,1-16.4-65.22c-5.88-36.73-7.2-90.84-7.24-91.47l8.93-9.4c0,.62,3.46,63,9.24,99.12,8.09,50.63,25.67,88.14,25.85,88.51h0A5.53,5.53,0,0,1,1184.81,1640.93Z"/><path class="cls-8" d="M1250.34,1632.14a5.52,5.52,0,0,1-7.27-4.14h0c-.11-.56-11.21-56.63-21.48-114.18-10.2-57.11-31.1-120.06-31.33-120.73l10.42-6c.22.68,21.48,66.91,31.81,124.78,5.74,32.16,11.74,63.84,15.93,85.61a19.37,19.37,0,0,0,25.48,14.6l9.38-3.3a13.83,13.83,0,0,0,9.19-14.18c-2-24-7.25-73-19.52-116.24a1002.53,1002.53,0,0,0-37.48-107.83l9.67-5.59a1029.93,1029.93,0,0,1,38.46,110.39c17.28,60.84,20.94,132.77,21,133.49h0a5.53,5.53,0,0,1-3.69,5.49Z"/><path class="cls-10" d="M455,954,477.26,971s-38.52,13.29-43.47,54.94S455,1101.5,455,1101.5s-43.06,24-43.79,58.18,41,39.23,41,39.23-35.06,32.24-9.89,98.83c27.48,72.67,108,62.11,108,62.11s3.53,124.94,72.11,162.37,113.54,0,113.54,0,40.94,98.81,97.41,100.22S898,1566.51,898,1566.51s31.36,2.81,66.89-21.48c34.2-23.38,42.83-53,42.83-53s41.41,32.56,99.41,7.63c64.58-27.75,48.82-94.6,48.82-94.6s91.17-11.29,126.35-70.59c29.52-49.73-8.3-112-8.3-112s24.6-3.76,30.62-21c8.39-24-10.67-39.53-10.67-39.53s35.11-19.16,38.47-61.76c6.36-80.47-130.23-144.71-130.23-144.71s19.76-47.29-27.53-105.17-110.83-39.89-110.83-39.89,7.06-46.58-32.82-74.47-79.06,12-79.06,12,24.09-46.73-13-64.73c-34.79-16.9-59,20.55-59,20.55s-4.59-38.76-38.12-69.46-81.88-17.75-81.88-17.75,4.47-44.31-35.25-64.09c-27.92-13.91-83-.83-83-.83"/></g><g id="Head"><path class="cls-11" d="M289.05,574.54s-68.39,95.07-94.44,162.05-31.39,95.91-16.53,104.95S255,830.85,292.4,762s66.35-155.74,66.35-155.74l-14.13-19Z"/><path class="cls-12" d="M284,580s6,7,12,11a103.91,103.91,0,0,0,10,6l8-8-26-14Z"/><path class="cls-13" d="M320.26,591.11s-41.13,33.94-64.09,93.32-24.85,75.31-17.8,79.76,42.3-19.91,61.06-64.73,31.26-106.32,31.26-106.32Z"/><path class="cls-14" d="M331.29,591.05s-41.71,45.2-62.37,93.44c-17.62,41.17-25.49,67.54-18.51,65.65s31.5-15.88,50.58-55.36,37.75-102,37.75-102Z"/><path class="cls-13" d="M312,598.94A55.67,55.67,0,0,0,317,615c2.61,5.22,8,9,8,9l8.18-9.71L324,591Z"/><path class="cls-8" d="M204.59,846.08a54.82,54.82,0,0,1-10.53,2c-10.78.94-17-2.73-20.33-6C147.41,816.5,185.41,734.91,203,701c34.32-66.23,81.37-134,81.84-134.65l9.09,6.33c-.47.68-47.12,67.84-81.09,133.42-40.32,77.8-42.08,117.64-31.35,128.11,2.42,2.36,6.34,3.33,11.64,2.86,22.21-1.92,56.86-26.47,77.24-54.73,31.94-44.27,82.18-169.81,82.68-171.07l10.29,4.1c-2.08,5.21-51.25,128.07-84,173.45C259.86,815.82,229,839,204.59,846.08Z"/><path class="cls-8" d="M245.85,771.85c-5.24,1.51-8.93.35-11.15-.94-15.83-9.24.68-59.44,21.4-103.34,23-48.82,59-83,60.55-84.41l7.6,8.06c-.36.34-36,34.22-58.13,81.08-27.73,58.73-28.5,85.93-25.64,89.19a5.94,5.94,0,0,0,2.83-.45c10.52-3.64,34.91-28.86,55.55-81,23.09-58.38,29.61-90.51,29.67-90.83l10.87,2.15c-.27,1.34-6.73,33.3-30.24,92.75C291.38,729,265.79,765,246.93,771.51,246.56,771.63,246.2,771.75,245.85,771.85Z"/><path class="cls-11" d="M324.19,618.31s-44.77,168.94-24.46,246.48S327.52,951.21,338,959c30,22,97.65,16.94,106,9,40-38,56-77,75-144.75,17-60.84,20.07-214.94,20.07-214.94Z"/><path class="cls-12" d="M326.27,630.51s6.54,10.94,30.46,17.8c26.55,7.62,54.45-6.46,54.45-6.46s12.06,11.39,28.9,10.69c23.7-1,34.82-25.69,34.82-25.69s14.07,15.53,34,19.85c17,3.69,28.75-11.73,28.75-11.73L406.35,572.15Z"/><path class="cls-7" d="M277.46,544.23s-5.08-29.8,19.27-42.07,52.49-19.85,52.49-19.85-6.4-23.3,19.6-26.56,81.09,22.94,81.09,22.94,13.93-32.83,41.21-25.88,47.93,35.63,47.93,35.63,4.57-21.79,20.18-20.21,40.53,50.38,40.53,50.38,52,.29,50.77,17.66S635,566,606.63,574.81s-63,13.55-63,13.55-14.17,55.74-27,55.31-46-31.77-46-31.77-12.16,33.07-31.2,30-33.78-17.62-33.78-17.62-12.26,26.11-39.26,19.44-47.78-57.55-47.78-57.55-14.88-5.2-27-13.85S277.46,544.23,277.46,544.23Z"/><path class="cls-11" d="M542.29,603.77S557.87,709,585.22,777.9,643,878.64,664.49,868.6s23.89-61.27,17-105.93-29.77-130.14-47.77-157.15-26-34.64-26-34.64-6.85,14.85-25.62,14.54-42.23,2.43-42.23,2.43Z"/><path class="cls-13" d="M590.06,609.31s-17.2,5.54-14.48,41.89,12.25,80.14,31.1,111.12S643,809.69,652,802.1s7.61-79.24-4.5-115.59S619.14,600.66,590.06,609.31Z"/><path class="cls-13" d="M305,907s26-15,89-15c54,0,97,24,97,24s-32.07,50.34-56.51,53.8S379,981,341.85,960.34C316.08,946,305,907,305,907Z"/><path class="cls-14" d="M595.52,637.51s-15.39,4.68-13,35.42,11,67.78,27.83,94S642.92,807,651,800.55s6.82-67-4-97.76S621.54,630.19,595.52,637.51Z"/><path class="cls-12" d="M617.21,586.23s-18.84,8.31-33.38,9.93-30.46,0-30.46,0,0,3-3,9.1-9.24,11.2-9.24,11.2l6.27-29.38L611.54,580Z"/><path class="cls-8" d="M374.71,650.61a54.33,54.33,0,0,1-17.83-3.26c-32.16-11.19-39-38.85-38.1-56.11-11.41-4.2-37.22-15.76-50.07-37.85-4.72-8.1.15-39.77,21.66-55.28,16.78-12.11,40.31-15.54,51.95-16.51.29-6.71,2.07-16.7,9.07-25.2,7.54-9.16,30.93-11,56.89-4.39a99.5,99.5,0,0,1,38,19.19c4.29-6.89,11.55-16.25,21.46-20.84,18.81-8.72,37.89-5.19,53.73,9.93a79.42,79.42,0,0,1,14.23,18.39,37.25,37.25,0,0,1,10-12.65c7-5.39,21.64-11,40.41,12.22,8.84,10.92,12.26,26.19,13.56,35.25,12.14-1.34,36.18-2.11,51.41,9.67a16.63,16.63,0,0,1,6.28,15.36c-1.53,13.79-16.76,28.12-42.89,40.36-31.52,14.76-53.31,14.07-64.25,12-4.56,18.83-15.71,54.62-34.73,56.11-15.23,1.25-31.69-16-41-27.71-6.74,11.51-19.68,28.28-37.41,27.38-13.2-.63-21.88-8.05-27.15-16.18a45.91,45.91,0,0,1-16.73,15.63A39.29,39.29,0,0,1,374.71,650.61Zm-41.62-62.93c-.25,1.41-5.64,34.77,28.34,46.59,9.79,3.41,18.32,3.27,25.34-.4,12.3-6.44,16.91-21.94,17-22.09l8.15-29.24,5.34,29.88c.14.77,3.89,19.65,20.52,20.44h.61c13.56,0,25.25-21.06,28.66-29.31l4.91-11.9,7.22,10.65c9,13.28,25.83,31.58,35.27,30.91,7.79-.61,18.84-28.07,23.88-52.32l1.78-8.59L548,576c.13.05,21.06,8.81,60.59-9.7,24.71-11.57,34.29-23,35-29.33.19-1.73-.39-2.43-1-2.88-13-10-38.85-7.7-47.74-6l-7.9,1.55-.35-8c0-.22-1.12-22.17-11.28-34.72-13.09-16.17-19.2-11.48-21.21-9.94-6.69,5.13-10.13,17.85-10.89,22.32L537.5,533l-7.83-33.21a67.89,67.89,0,0,0-17.78-29.46c-14.66-14-28.95-11.74-38.35-7.39-11.59,5.37-19,21.95-19.07,22.12l-4.29,9.74L443,486.92a84.78,84.78,0,0,0-38.12-21.49c-26-6.59-40.71-2.39-42.84-.19-7.49,9.09-5.76,21.75-5.74,21.88l1.14,7.83-7.91.12c-.32,0-32,.54-51.07,14.27C283.3,520.29,280.08,542,281,546.91c13.79,23,46.89,32.8,47.22,32.9l6,1.73Z"/><path class="cls-8" d="M655.6,872.6a41.64,41.64,0,0,1-19.25-5c-17.1-8.94-42-34.17-63.58-103.6-27-87.1-38.27-160.54-38.38-161.27l11-1.65c.11.72,11.22,73.38,38,159.63C604.86,830,629,851.23,641.48,857.75c7.44,3.89,14.59,4.79,21.22,2.69,19.95-6.32,19.93-65.34,0-157.88-17-78.89-57.35-124.67-57.75-125.12l8.25-7.38c1.74,1.94,42.68,48.44,60.32,130.17,22.59,104.6,20.09,162-7.43,170.77A34.59,34.59,0,0,1,655.6,872.6Z"/><path class="cls-8" d="M346.32,727H338a5.53,5.53,0,0,1-5.52-6,108.93,108.93,0,0,1,3.13-18.33c1.53-5.77,2.81-10.37,3.72-13.6a5.53,5.53,0,0,1,6.92-3.79l8,2.39a5.51,5.51,0,0,1,3.74,6.79c-.89,3.15-2.13,7.62-3.6,13.17A88.88,88.88,0,0,0,351.84,722,5.52,5.52,0,0,1,346.32,727Z"/><path class="cls-8" d="M481.74,732.33h-8.35a5.52,5.52,0,0,1-5.51-6A107.08,107.08,0,0,1,471,708c1.53-5.76,2.8-10.37,3.72-13.6a5.53,5.53,0,0,1,6.92-3.79l8,2.39a5.54,5.54,0,0,1,3.74,6.8c-.89,3.14-2.13,7.62-3.6,13.16a89.25,89.25,0,0,0-2.5,14.34A5.52,5.52,0,0,1,481.74,732.33Z"/><path class="cls-8" d="M643,807.65a25,25,0,0,1-12.23-3.55c-18.69-10.46-38.15-43.53-48.4-82.27h0c-8.25-31.18-19.95-87-5.59-110.68,3.59-5.92,8.57-9.64,14.81-11,27.71-6.26,50.27,59.27,58.68,87.71,14.84,50.21,23.26,111.5-1.87,119A18.62,18.62,0,0,1,643,807.65ZM593.11,719c10.47,39.55,29.61,67.89,43.1,75.45,3.49,1.95,6.53,2.56,9,1.81,11.34-3.4,11.81-46.52-5.56-105.29-18.37-62.12-37.37-81.88-45.63-80a12,12,0,0,0-7.77,6c-8.8,14.5-6.25,52.67,6.83,102.09Z"/><path class="cls-15" d="M341,922s18,25.61,48,27c43,2,61-25,61-25"/><path class="cls-16" d="M329.92,608.31S296,726,293,790s10,142,48,170,90.5,14.5,110,2.12C496.26,933.4,517.37,852.19,529,782c12.53-75.65,10.87-182.31,10.87-182.31"/></g></svg>